<svg version="1.0" xmlns="http://www.w3.org/2000/svg"
 width="512" height="512" viewBox="0 0 512.000000 512.000000"
 preserveAspectRatio="xMidYMid meet">
<g transform="translate(0.000000,512.000000) scale(0.100000,-0.100000)"
fill="#6366f1" stroke="none">
<path d="M533 4357 c-175 -67 -263 -288 -178 -446 l28 -50 -47 -48 c-54 -55
-102 -145 -116 -222 -14 -76 -12 -176 4 -215 28 -67 22 -66 416 -66 394 0 388
-1 416 66 8 18 14 60 14 92 0 139 -47 270 -125 348 l-47 46 29 52 c24 44 28
62 28 131 0 71 -4 89 -33 147 -34 70 -86 123 -151 155 -45 22 -191 28 -238 10z
m153 -212 c100 -42 64 -195 -46 -195 -104 0 -145 137 -56 191 37 23 56 24 102
4z m51 -439 c60 -28 102 -83 110 -145 l6 -41 -212 0 -211 0 0 27 c0 15 9 46
21 70 49 102 174 141 286 89z"/>
<path d="M1419 4256 c-102 -27 -171 -87 -218 -186 -25 -53 -26 -63 -26 -230
l0 -175 33 -67 c37 -76 82 -120 162 -157 l55 -26 1565 0 c1501 0 1567 1 1620
19 119 40 200 113 254 225 29 62 31 73 31 181 0 108 -2 119 -31 180 -52 111
-127 179 -242 223 l-57 22 -1550 2 c-1210 1 -1560 -1 -1596 -11z m3180 -239
c52 -34 91 -110 91 -177 0 -67 -39 -143 -91 -177 l-43 -28 -1553 -3 -1554 -2
-30 29 -29 29 0 152 0 152 29 29 30 29 1554 -2 1553 -3 43 -28z"/>
<path d="M533 3077 c-175 -67 -263 -288 -178 -446 l28 -50 -47 -48 c-54 -55
-102 -145 -116 -222 -14 -76 -12 -176 4 -215 28 -67 22 -66 416 -66 394 0 388
-1 416 66 8 18 14 60 14 92 0 139 -47 270 -125 348 l-47 46 29 52 c24 44 28
62 28 131 0 71 -4 89 -33 147 -34 70 -86 123 -151 155 -45 22 -191 28 -238 10z
m153 -212 c100 -42 64 -195 -46 -195 -104 0 -145 137 -56 191 37 23 56 24 102
4z m51 -439 c60 -28 102 -83 110 -145 l6 -41 -212 0 -211 0 0 27 c0 15 9 46
21 70 49 102 174 141 286 89z"/>
<path d="M1419 2977 c-102 -29 -171 -88 -218 -187 -25 -53 -26 -63 -26 -230
l0 -175 33 -67 c37 -76 82 -120 162 -157 l55 -26 445 0 c408 0 450 2 500 19
119 40 200 113 254 225 29 62 31 73 31 181 0 108 -2 119 -31 180 -52 111 -128
180 -242 223 -54 20 -76 21 -487 24 -324 2 -441 -1 -476 -10z m940 -240 c52
-34 91 -110 91 -177 0 -67 -39 -143 -91 -177 l-43 -28 -433 -3 -434 -3 -29 30
-30 29 0 152 0 152 30 29 29 30 434 -3 433 -3 43 -28z"/>
<path d="M533 1797 c-175 -67 -263 -288 -178 -446 l28 -50 -47 -48 c-54 -55
-102 -145 -116 -222 -14 -76 -12 -176 4 -215 28 -67 22 -66 416 -66 394 0 388
-1 416 66 8 18 14 60 14 92 0 139 -47 270 -125 348 l-47 46 29 52 c24 44 28
62 28 131 0 71 -4 89 -33 147 -34 70 -86 123 -151 155 -45 22 -191 28 -238 10z
m153 -212 c100 -42 64 -195 -46 -195 -104 0 -145 137 -56 191 37 23 56 24 102
4z m51 -439 c60 -28 102 -83 110 -145 l6 -41 -212 0 -211 0 0 27 c0 15 9 46
21 70 49 102 174 141 286 89z"/>
<path d="M1419 1696 c-102 -27 -171 -87 -218 -186 -25 -53 -26 -63 -26 -230
l0 -175 33 -67 c37 -76 82 -120 162 -157 l55 -26 1140 -3 c751 -2 1167 1 1219
8 101 13 172 46 241 111 173 164 173 454 0 618 -65 61 -135 96 -225 110 -100
16 -2321 14 -2381 -3z m2433 -241 c124 -88 124 -262 0 -350 l-44 -30 -1180 -3
-1179 -2 -30 29 -29 29 0 152 0 152 29 29 30 29 1179 -2 1180 -3 44 -30z"/>
</g>
</svg>
